{"title":"Wwe Summerslam ( 2011 ) HDTV - AVC - x264","uid":6606635,"size":2136200426,"categoryP":"video","categoryS":"other","magnet":"?xt=urn:btih:981849d7913ff5896427997acdbf99486c11a4ff&amp;dn=Wwe+Summerslam+%28+2011+%29+HDTV+-+AVC+-+x264&amp;tr=udp%3A%2F%2Ftracker.openbittorrent.com%3A80&amp;tr=udp%3A%2F%2Fopen.demonii.com%3A1337&amp;tr=udp%3A%2F%2Ftracker.coppersurfer.tk%3A6969&amp;tr=udp%3A%2F%2Fexodus.desync.com%3A6969","seeders":0,"leechers":1,"uploader":".Dude.","files":-1,"time":1313423906,"description":"Ripper                           : Rodus\nComplete name                    : Wwe Summerslam ( 2011 )\nFormat                           : MPEG-4\nFormat profile                   : Base Media\nCodec ID                         : isom\nFile size                        : 1.99 GiB\nDuration                         : 2h 49mn\nOverall bit rate                 : 1 676 Kbps\n\n\nVideo\nID                               : 1\nFormat                           : AVC\nFormat/Info                      : Advanced Video Codec\nFormat profile                   : &lt;a class=&quot;__cf_email__&quot; href=&quot;/cdn-cgi/l/email-protection&quot; data-cfemail=&quot;2068494748606c130e11&quot;&gt;[email&amp;#160;protected]&lt;/a&gt;&lt;script cf-hash='f9e31' type=&quot;text/javascript&quot;&gt;\n/* &lt;![CDATA[ */!function(){try{var t=&quot;currentScript&quot;in document?document.currentScript:function(){for(var t=document.getElementsByTagName(&quot;script&quot;),e=t.length;e--;)if(t[e].getAttribute(&quot;cf-hash&quot;))return t[e]}();if(t&amp;&amp;t.previousSibling){var e,r,n,i,c=t.previousSibling,a=c.getAttribute(&quot;data-cfemail&quot;);if(a){for(e=&quot;&quot;,r=parseInt(a.substr(0,2),16),n=2;a.length-n;n+=2)i=parseInt(a.substr(n,2),16)^r,e+=String.fromCharCode(i);e=document.createTextNode(e),c.parentNode.replaceChild(e,c)}}}catch(u){}}();/* ]]&gt; */&lt;/script&gt;\nFormat settings, CABAC           : Yes\nFormat settings, ReFrames        : 4 frames\nCodec ID                         : avc1\nCodec ID/Info                    : Advanced Video Coding\nDuration                         : 2h 49mn\nBit rate mode                    : Variable\nBit rate                         : 1 479 Kbps\nWidth                            : 704 pixels\nHeight                           : 400 pixels\nDisplay aspect ratio             : 16:9\nFrame rate mode                  : Constant\nFrame rate                       : 29.970 fps\nColor space                      : YUV\nChroma subsampling               : 4:2:0\nBit depth                        : 8 bits\nScan type                        : Progressive\nBits/(Pixel*Frame)               : 0.175\nStream size                      : 1.76 GiB (88%)\nWriting library                  : x264 core 88 r1471 1144615\n\n\nAudio\nID                               : 2\nFormat                           : AAC\nFormat/Info                      : Advanced Audio Codec\nFormat profile                   : LC\nCodec ID                         : 40\nDuration                         : 2h 49mn\nBit rate mode                    : Constant\nBit rate                         : 192 Kbps\nChannel(s)                       : 2 channels\nChannel positions                : Front: L R\nSampling rate                    : 48.0 KHz\nCompression mode                 : Lossy\nStream size                      : 231 MiB (11%)\n\nCredits to PUNJABI_BOY\n\nScreens: &lt;a href=&quot;\nhttp://i887.photobucket.com/albums/ac76/desiess/Punjabi/1-36.jpg&quot; rel=&quot;nofollow&quot; target=&quot;_NEW&quot;&gt;\nhttp://i887.photobucket.com/albums/ac76/desiess/Punjabi/1-36.jpg&lt;/a&gt; &lt;a href=&quot;\nhttp://i887.photobucket.com/albums/ac76/desiess/Punjabi/2-36.jpg&quot; rel=&quot;nofollow&quot; target=&quot;_NEW&quot;&gt;\nhttp://i887.photobucket.com/albums/ac76/desiess/Punjabi/2-36.jpg&lt;/a&gt; &lt;a href=&quot;\nhttp://i887.photobucket.com/albums/ac76/desiess/Punjabi/3-37.jpg&quot; rel=&quot;nofollow&quot; target=&quot;_NEW&quot;&gt;\nhttp://i887.photobucket.com/albums/ac76/desiess/Punjabi/3-37.jpg&lt;/a&gt; &lt;a href=&quot;\nhttp://i887.photobucket.com/albums/ac76/desiess/Punjabi/5-36.jpg&quot; rel=&quot;nofollow&quot; target=&quot;_NEW&quot;&gt;\nhttp://i887.photobucket.com/albums/ac76/desiess/Punjabi/5-36.jpg&lt;/a&gt; &lt;a href=&quot;\nhttp://i887.photobucket.com/albums/ac76/desiess/Punjabi/6-35.jpg&quot; rel=&quot;nofollow&quot; target=&quot;_NEW&quot;&gt;\nhttp://i887.photobucket.com/albums/ac76/desiess/Punjabi/6-35.jpg&lt;/a&gt; &lt;a href=&quot;\nhttp://i887.photobucket.com/albums/ac76/desiess/Punjabi/8-30.jpg&quot; rel=&quot;nofollow&quot; target=&quot;_NEW&quot;&gt;\nhttp://i887.photobucket.com/albums/ac76/desiess/Punjabi/8-30.jpg&lt;/a&gt; &lt;a href=&quot;\nhttp://i887.photobucket.com/albums/ac76/desiess/Punjabi/9-25.jpg&quot; rel=&quot;nofollow&quot; target=&quot;_NEW&quot;&gt;\nhttp://i887.photobucket.com/albums/ac76/desiess/Punjabi/9-25.jpg&lt;/a&gt;\n\n ~ Seed 4 others,Others would seed 4 u ~\n         Be a Gentleman!!\n\n    ______            ______   _______    \n   (  __  \\ |\\     /|(  __  \\ (  ____ \\   \n   | (  \\  )| )   ( || (  \\  )| (    \\/   \n   | |   ) || |   | || |   ) || (__       \n   | |   | || |   | || |   | ||  __)      \n   | |   ) || |   | || |   ) || (         \n _ | (__/  )| (___) || (__/  )| (____/\\ _ \n(_)(______/ (_______)(______/ (_______/(_)\n\n\nA simple THANKS goes a long way... :-)\nAny comments would b appreciated.","torrent":{"xt":"urn:btih:981849d7913ff5896427997acdbf99486c11a4ff","amp;dn":"Wwe+Summerslam+%28+2011+%29+HDTV+-+AVC+-+x264","amp;tr":["udp%3A%2F%2Ftracker.openbittorrent.com%3A80","udp%3A%2F%2Fopen.demonii.com%3A1337","udp%3A%2F%2Ftracker.coppersurfer.tk%3A6969","udp%3A%2F%2Fexodus.desync.com%3A6969"],"infoHash":"981849d7913ff5896427997acdbf99486c11a4ff","infoHashBuffer":{"type":"Buffer","data":[152,24,73,215,145,63,245,137,100,39,153,122,205,191,153,72,108,17,164,255]},"announce":[],"urlList":[]}}